<svg xmlns="http://www.w3.org/2000/svg" width="896" height="747.971" viewBox="0 0 896 747.971">
  <g id="stock" transform="translate(0 0)">
    <path id="Path_521" data-name="Path 521" d="M193.634,788.752C206.062,811.8,232.44,821.7,232.44,821.7s6.227-27.475-6.2-50.524-38.806-32.943-38.806-32.943S181.206,765.7,193.634,788.752Z" transform="translate(-152 -76.014)" fill="#2f2e41"/>
    <path id="Path_522" data-name="Path 522" d="M202.177,781.169c22.438,13.5,31.08,40.314,31.08,40.314s-27.738,4.927-50.176-8.573S152,772.6,152,772.6,179.738,767.67,202.177,781.169Z" transform="translate(-152 -76.014)" fill="#6c63ff"/>
    <path id="Path_523" data-name="Path 523" d="M362.06,702.184H125.274v-1.7H360.356v-82.62H145.18l-10.453-21.777,1.536-.737,9.989,20.81H362.06Z" fill="#2f2e41"/>
    <circle id="Ellipse_96" data-name="Ellipse 96" cx="17.887" cy="17.887" r="17.887" transform="translate(138.902 708.146)" fill="#3f3d56"/>
    <circle id="Ellipse_97" data-name="Ellipse 97" cx="17.887" cy="17.887" r="17.887" transform="translate(315.214 708.146)" fill="#3f3d56"/>
    <circle id="Ellipse_98" data-name="Ellipse 98" cx="11.073" cy="11.073" r="11.073" transform="translate(529.854 335.08)" fill="#3f3d56"/>
    <path id="Path_524" data-name="Path 524" d="M539.385,665.767H273.237L215.648,477.531H598.693l-.349,1.108Zm-264.888-1.7H538.136l58.234-184.83H217.951Z" transform="translate(-152 -76.014)" fill="#2f2e41"/>
    <path id="Path_525" data-name="Path 525" d="M366.61,579.958H132.842L82.26,413.015H418.7l-.306.983Z" fill="#f2f2f2"/>
    <path id="Path_526" data-name="Path 526" d="M451.465,384.7l-1.647-.437,11.241-42.369h65.389v1.7H462.37Z" fill="#2f2e41"/>
    <rect id="Rectangle_164" data-name="Rectangle 164" width="345.293" height="1.704" transform="translate(82.258 458.584)" fill="#2f2e41"/>
    <rect id="Rectangle_165" data-name="Rectangle 165" width="306.319" height="1.704" transform="translate(101.459 521.344)" fill="#2f2e41"/>
    <rect id="Rectangle_166" data-name="Rectangle 166" width="1.704" height="186.533" transform="translate(254.314 402.368)" fill="#2f2e41"/>
    <rect id="Rectangle_167" data-name="Rectangle 167" width="186.929" height="1.704" transform="matrix(0.065, -0.998, 0.998, 0.065, 320.059, 588.845)" fill="#2f2e41"/>
    <rect id="Rectangle_168" data-name="Rectangle 168" width="1.704" height="186.929" transform="translate(176.38 402.422) rotate(-3.729)" fill="#2f2e41"/>
    <rect id="Rectangle_169" data-name="Rectangle 169" width="896" height="2" transform="translate(0 745)" fill="#2f2e41"/>
    <path id="Path_527" data-name="Path 527" d="M747.411,137.89s14.618,41.606,5.622,48.007,30.361,58.676,30.361,58.676l47.229-12.8-25.863-43.74s-3.373-43.74-3.373-50.141S747.411,137.89,747.411,137.89Z" transform="translate(-152 -76.014)" fill="#a0616a"/>
    <path id="Path_528" data-name="Path 528" d="M747.411,137.89s14.618,41.606,5.622,48.007,30.361,58.676,30.361,58.676l47.229-12.8-25.863-43.74s-3.373-43.74-3.373-50.141S747.411,137.89,747.411,137.89Z" transform="translate(-152 -76.014)" opacity="0.1"/>
    <path id="Path_529" data-name="Path 529" d="M722.874,434.468s-4.267,53.341,0,81.079S733.542,620.1,733.542,620.1s0,145.089,23.47,147.222,40.539,4.267,42.673-4.267-10.668-12.8-4.267-17.069,8.535-19.2,0-36.272,0-189.9,0-189.9L835.958,628.63s4.267,89.614,8.535,102.415-4.267,36.272,10.668,38.406,32-10.668,40.539-14.936-12.8-4.267-8.535-6.4,17.069-8.535,12.8-10.668S891.433,632.9,891.433,632.9,879.7,414.2,864.762,405.664s-24.537,6.166-24.537,6.166Z" transform="translate(-152 -76.014)" fill="#2f2e41"/>
    <path id="Path_530" data-name="Path 530" d="M761.279,758.784v17.069s-19.2,46.4,0,46.4,34.138,4.808,34.138-1.593V763.051Z" transform="translate(-152 -76.014)" fill="#2f2e41"/>
    <path id="Path_531" data-name="Path 531" d="M887.165,758.754v17.069s19.2,46.4,0,46.4-34.138,4.808-34.138-1.593V763.021Z" transform="translate(-152 -76.014)" fill="#2f2e41"/>
    <circle id="Ellipse_99" data-name="Ellipse 99" cx="38.406" cy="38.406" r="38.406" transform="translate(586.876 16.002)" fill="#a0616a"/>
    <path id="Path_532" data-name="Path 532" d="M765.547,201.9s10.668,32,27.737,25.6l17.069-6.4,29.871,204.831s-23.47,34.138-57.609,12.8S765.547,201.9,765.547,201.9Z" transform="translate(-152 -76.014)" fill="#6c63ff"/>
    <path id="Path_533" data-name="Path 533" d="M795.418,195.5l9.6-20.27S861.561,201.9,870.1,210.435s8.535,21.337,8.535,21.337l-14.936,53.341s4.267,117.351,4.267,121.618,14.936,27.737,4.267,19.2-12.8-17.069-21.336-4.267S823.156,449.4,823.156,449.4Z" transform="translate(-152 -76.014)" fill="#3f3d56"/>
    <path id="Path_534" data-name="Path 534" d="M870.1,349.122l-6.4,59.742S825.289,443,833.824,445.136s12.8-6.4,12.8-6.4,14.936,14.936,23.47,6.4,29.871-89.613,29.871-89.613Z" transform="translate(-152 -76.014)" fill="#a0616a"/>
    <path id="Path_535" data-name="Path 535" d="M778.1,76.144c-8.514-.3-17.625-.455-24.8,4.133a36.312,36.312,0,0,0-8.572,8.392c-6.992,8.838-13.032,19.959-10.435,30.925l3.016-1.176a19.75,19.75,0,0,1-1.9,8.462c.424-1.234,1.847.762,1.466,2.011l-3.323,10.9c5.462-2,12.257,2.052,13.088,7.81.38-12.661,1.693-27.18,11.964-34.593,5.18-3.739,11.735-4.88,18.042-5.894,5.818-.935,11.918-1.827,17.491.089s10.319,7.615,9.055,13.371c2.57-.885,5.444.906,6.713,3.309s1.337,5.238,1.375,7.955c2.739,1.936,5.856-1.908,6.973-5.071,2.62-7.424,4.949-15.327,3.538-23.073s-7.723-15.148-15.6-15.174a5.467,5.467,0,0,0,1.422-3.849l-6.489-.548a7.172,7.172,0,0,0,4.286-2.26C802.8,84.73,782.313,76.295,778.1,76.144Z" transform="translate(-152 -76.014)" fill="#2f2e41"/>
    <path id="Path_536" data-name="Path 536" d="M776.215,189.1s-17.369-17.021-23.62-15.978S737.809,189.1,737.809,189.1s-51.208,17.069-49.074,34.139,25.6,100.281,25.6,100.281,19.2,100.282,2.134,110.95,81.079,38.406,83.213,25.6,6.4-140.821,0-160.024S776.215,189.1,776.215,189.1Z" transform="translate(-152 -76.014)" fill="#3f3d56"/>
    <path id="Path_537" data-name="Path 537" d="M850.893,223.236h26.383s18.424,81.079,20.557,89.614,6.4,49.074,4.267,49.074-44.807-8.535-44.807-2.134Z" transform="translate(-152 -76.014)" fill="#3f3d56"/>
    <path id="Path_538" data-name="Path 538" d="M850,424.014H749c-9.856-45.34-10.68-89.147,0-131H850C833.7,334.115,832.682,377.621,850,424.014Z" transform="translate(-152 -76.014)" fill="#f2f2f2"/>
    <path id="Path_539" data-name="Path 539" d="M707.938,368.325l29.871,12.8s57.609,8.535,57.609-14.936-57.609-10.668-57.609-10.668l-19.2-6.14Z" transform="translate(-152 -76.014)" fill="#a0616a"/>
    <path id="Path_540" data-name="Path 540" d="M714.339,210.435l-25.6,6.4-19.2,113.083s-6.4,29.871,4.267,32,40.54,19.2,40.54,19.2,4.267-32,12.8-32L705.8,332.053l12.8-74.678Z" transform="translate(-152 -76.014)" fill="#3f3d56"/>
  </g>
</svg>
